<svg width="86" height="86" viewBox="0 0 86 86" fill="none" xmlns="http://www.w3.org/2000/svg">
<path d="M42.9989 0C19.2895 0 0 19.2894 0 42.9993C0 66.7099 19.2895 86 42.9989 86C66.7097 86 86 66.7099 86 42.9993C86 19.2894 66.7097 0 42.9989 0ZM42.9989 81.759C21.6278 81.759 4.24101 64.371 4.24101 42.9993C4.24101 21.6283 21.6278 4.24098 42.9989 4.24098C64.3708 4.24098 81.759 21.6283 81.759 42.9993C81.759 64.371 64.3708 81.759 42.9989 81.759Z" fill="#0070FF" fill-opacity="0.5"/>
<path d="M66.0969 28.7093L43.9419 17.7273C43.3495 17.4333 42.6519 17.4333 42.0589 17.7273L19.9024 28.7093C19.18 29.067 18.7234 29.8035 18.7234 30.6093C18.7234 31.4151 19.18 32.1516 19.9024 32.5092L42.0589 43.4898C42.355 43.6369 42.6781 43.7104 43.0004 43.7104C43.3227 43.7104 43.6457 43.6369 43.9419 43.4898L66.0976 32.5092C66.8193 32.1516 67.2766 31.4151 67.2766 30.6093C67.2766 29.8035 66.8193 29.067 66.0969 28.7093Z" fill="#0070FF" fill-opacity="0.5"/>
<path d="M64.2139 37.1757L43.0003 47.6898L21.7854 37.1757C20.7371 36.6555 19.4634 37.0852 18.9439 38.1342C18.4237 39.1831 18.8527 40.4554 19.9024 40.9756L42.0588 51.9569C42.355 52.104 42.678 52.1775 43.0003 52.1775C43.3227 52.1775 43.6457 52.104 43.9419 51.9562L66.0976 40.9756C67.1466 40.4554 67.5763 39.1831 67.0554 38.1342C66.5352 37.0845 65.2636 36.6562 64.2139 37.1757Z" fill="#0070FF" fill-opacity="0.5"/>
<path d="M64.2139 45.2456L43.0003 55.759L21.7854 45.2449C20.7371 44.7268 19.4634 45.1544 18.9439 46.2034C18.4237 47.2523 18.8527 48.5246 19.9024 49.0455L42.0588 60.0261C42.355 60.1731 42.678 60.2467 43.0003 60.2467C43.3227 60.2467 43.6457 60.1731 43.9419 60.0254L66.0976 49.0448C67.1466 48.5253 67.5763 47.253 67.0554 46.2034C66.5352 45.1544 65.2636 44.7225 64.2139 45.2456Z" fill="#0070FF" fill-opacity="0.5"/>
<path d="M64.2139 53.3148L43.0003 63.8281L21.7854 53.3141C20.7371 52.7945 19.4634 53.2243 18.9439 54.2725C18.4237 55.3214 18.8527 56.5937 19.9024 57.1147L42.0588 68.0953C42.355 68.2423 42.678 68.3158 43.0003 68.3158C43.3227 68.3158 43.6457 68.2423 43.9419 68.0946L66.0976 57.114C67.1466 56.5944 67.5763 55.3222 67.0554 54.2725C66.5352 53.2236 65.2636 52.7931 64.2139 53.3148Z" fill="#0070FF" fill-opacity="0.5"/>
</svg>
