<svg width="84" height="87" viewBox="0 0 84 87" fill="none" xmlns="http://www.w3.org/2000/svg">
<mask id="path-1-outside-1_1_19" maskUnits="userSpaceOnUse" x="-0.5" y="-0.5" width="85" height="88" fill="black">
<rect fill="white" x="-0.5" y="-0.5" width="85" height="88"/>
<path d="M41.991 86.5C40.5949 86.5 39.1855 85.9761 38.0982 84.9237L35.1897 82.1234C34.8676 81.8128 34.4201 81.7201 34.0085 81.8731L30.2857 83.3103C27.4892 84.3905 24.3302 83.0275 23.0817 80.2225L21.4306 76.4858C21.2472 76.0686 20.8713 75.8089 20.4328 75.7997L16.4685 75.6467C13.4884 75.5261 11.0632 73.0226 10.9603 69.9395L10.8127 65.8319C10.7992 65.3822 10.5397 64.9881 10.1504 64.7981L6.54403 63.0873C3.828 61.8078 2.52147 58.516 3.56397 55.623L4.95102 51.7657C5.09868 51.3392 5.00919 50.8756 4.72282 50.5418L2.02019 47.5283C-0.00672924 45.2611 -0.00672924 41.7145 2.02019 39.4567L4.72282 36.4431C5.02262 36.1093 5.1121 35.6457 4.96445 35.2192L3.57739 31.3619C2.53483 28.4643 3.85033 25.1912 6.55746 23.8976L10.1639 22.1869C10.5666 21.9968 10.8171 21.6074 10.8261 21.153L10.9738 17.0454C11.0901 13.9577 13.5063 11.4448 16.4819 11.3383L20.4463 11.1853C20.8803 11.1714 21.2606 10.9025 21.4441 10.4991L23.0952 6.76241C24.3435 3.94824 27.5071 2.59451 30.2992 3.67467L34.0219 5.11184C34.4336 5.26484 34.8811 5.17211 35.2032 4.87539L38.1116 2.07511C40.2997 -0.0250377 43.7226 -0.0250377 45.9018 2.07511L48.8103 4.87539C49.1324 5.18602 49.5799 5.27874 49.9915 5.12575L53.7143 3.68858C56.5108 2.60835 59.6698 3.96212 60.9183 6.77632L62.5694 10.513C62.7528 10.9303 63.1287 11.1899 63.5672 11.1992L67.5315 11.3522C70.5116 11.4727 72.9368 13.9762 73.0397 17.0593L73.1873 21.1669C73.2008 21.6167 73.4603 22.0107 73.8495 22.2008L77.456 23.9115C80.172 25.1911 81.4785 28.4829 80.436 31.3758L79.049 35.2331C78.9013 35.6597 78.9908 36.1233 79.2772 36.457L81.9798 39.4706C84.0067 41.7377 84.0067 45.2843 81.9798 47.5422L79.2772 50.5558C78.9774 50.8896 78.8879 51.3532 79.0356 51.7796L80.4226 55.6369C81.4652 58.5345 80.1497 61.8077 77.4425 63.1012L73.8361 64.812C73.4334 65.0021 73.1829 65.3915 73.1739 65.8458L73.0262 69.9534C72.9099 73.0412 70.4937 75.554 67.5181 75.6606L63.5537 75.8136C63.1197 75.8275 62.7394 76.0964 62.5559 76.4997L60.9048 80.2364C59.6565 83.0506 56.4929 84.4043 53.7008 83.3242L49.978 81.887C49.5753 81.734 49.1189 81.8267 48.7968 82.1235L45.8884 84.9237C44.8011 85.9808 43.3916 86.5 41.9956 86.5L41.991 86.5ZM34.4201 77.0654C35.8385 77.0654 37.2256 77.6125 38.3039 78.6556L41.2124 81.4558C41.6464 81.8824 42.3355 81.8824 42.7696 81.4558L45.678 78.6556C47.2709 77.1256 49.5262 76.6481 51.5665 77.4455L55.2893 78.8827C55.8486 79.096 56.4795 78.8364 56.7345 78.2661L58.3856 74.5294C59.2894 72.4755 61.2045 71.1589 63.3792 71.0754L67.3436 70.9224C67.9387 70.8992 68.4219 70.3985 68.4443 69.7819L68.5919 65.6649C68.6725 63.4118 69.9567 61.4275 71.9255 60.4909L75.5319 58.7802C76.0689 58.5205 76.3329 57.8668 76.127 57.2827L74.74 53.4254C73.9838 51.3114 74.4312 48.9747 75.9078 47.3242L78.6104 44.3107C79.0131 43.8609 79.0131 43.147 78.6104 42.6972L75.9078 39.6837C74.4312 38.0332 73.9703 35.6965 74.74 33.5825L76.127 29.7252C76.3329 29.1457 76.0689 28.4919 75.5319 28.2277L71.9255 26.517C69.9433 25.5805 68.6726 23.5963 68.5919 21.343L68.4443 17.2354C68.4219 16.6188 67.9387 16.1181 67.3436 16.0949L63.3701 15.9419C61.1956 15.8584 59.2804 14.5279 58.3766 12.4879L56.7255 8.75117C56.4749 8.19483 55.844 7.9213 55.2802 8.13456L51.5574 9.57173C49.5171 10.3553 47.2619 9.89163 45.669 8.36173L42.7605 5.56145C42.3265 5.13491 41.6374 5.13491 41.2034 5.56145L38.2949 8.36173C36.702 9.89171 34.4468 10.3692 32.4065 9.57173L28.6837 8.13456C28.1333 7.9213 27.4934 8.19483 27.2384 8.75117L25.5873 12.4879C24.6835 14.5418 22.7684 15.8583 20.5938 15.9419L16.6294 16.0949C16.0343 16.1181 15.551 16.6188 15.5287 17.2354L15.381 21.3524C15.3004 23.6055 14.0163 25.5898 12.0474 26.5264L8.44102 28.2371C7.90408 28.4967 7.64008 29.1504 7.84591 29.7346L9.23297 33.5919C9.98916 35.7059 9.54171 38.0426 8.06516 39.6931L5.36252 42.7066C4.95982 43.1563 4.95982 43.8703 5.36252 44.32L8.06516 47.3336C9.54179 48.984 10.0026 51.3207 9.23297 53.4348L7.84591 57.2921C7.64008 57.8716 7.90408 58.5253 8.44102 58.7895L12.0474 60.5003C14.0297 61.4368 15.3003 63.421 15.381 65.6743L15.5287 69.7819C15.551 70.3985 16.0343 70.8992 16.6294 70.9224L20.6028 71.0754C22.7774 71.1588 24.6925 72.4894 25.5964 74.5294L27.2475 78.2661C27.498 78.8224 28.129 79.096 28.6927 78.8827L32.4155 77.4455C33.0688 77.1952 33.7445 77.0654 34.4201 77.0654Z"/>
</mask>
<path d="M41.991 86.5C40.5949 86.5 39.1855 85.9761 38.0982 84.9237L35.1897 82.1234C34.8676 81.8128 34.4201 81.7201 34.0085 81.8731L30.2857 83.3103C27.4892 84.3905 24.3302 83.0275 23.0817 80.2225L21.4306 76.4858C21.2472 76.0686 20.8713 75.8089 20.4328 75.7997L16.4685 75.6467C13.4884 75.5261 11.0632 73.0226 10.9603 69.9395L10.8127 65.8319C10.7992 65.3822 10.5397 64.9881 10.1504 64.7981L6.54403 63.0873C3.828 61.8078 2.52147 58.516 3.56397 55.623L4.95102 51.7657C5.09868 51.3392 5.00919 50.8756 4.72282 50.5418L2.02019 47.5283C-0.00672924 45.2611 -0.00672924 41.7145 2.02019 39.4567L4.72282 36.4431C5.02262 36.1093 5.1121 35.6457 4.96445 35.2192L3.57739 31.3619C2.53483 28.4643 3.85033 25.1912 6.55746 23.8976L10.1639 22.1869C10.5666 21.9968 10.8171 21.6074 10.8261 21.153L10.9738 17.0454C11.0901 13.9577 13.5063 11.4448 16.4819 11.3383L20.4463 11.1853C20.8803 11.1714 21.2606 10.9025 21.4441 10.4991L23.0952 6.76241C24.3435 3.94824 27.5071 2.59451 30.2992 3.67467L34.0219 5.11184C34.4336 5.26484 34.8811 5.17211 35.2032 4.87539L38.1116 2.07511C40.2997 -0.0250377 43.7226 -0.0250377 45.9018 2.07511L48.8103 4.87539C49.1324 5.18602 49.5799 5.27874 49.9915 5.12575L53.7143 3.68858C56.5108 2.60835 59.6698 3.96212 60.9183 6.77632L62.5694 10.513C62.7528 10.9303 63.1287 11.1899 63.5672 11.1992L67.5315 11.3522C70.5116 11.4727 72.9368 13.9762 73.0397 17.0593L73.1873 21.1669C73.2008 21.6167 73.4603 22.0107 73.8495 22.2008L77.456 23.9115C80.172 25.1911 81.4785 28.4829 80.436 31.3758L79.049 35.2331C78.9013 35.6597 78.9908 36.1233 79.2772 36.457L81.9798 39.4706C84.0067 41.7377 84.0067 45.2843 81.9798 47.5422L79.2772 50.5558C78.9774 50.8896 78.8879 51.3532 79.0356 51.7796L80.4226 55.6369C81.4652 58.5345 80.1497 61.8077 77.4425 63.1012L73.8361 64.812C73.4334 65.0021 73.1829 65.3915 73.1739 65.8458L73.0262 69.9534C72.9099 73.0412 70.4937 75.554 67.5181 75.6606L63.5537 75.8136C63.1197 75.8275 62.7394 76.0964 62.5559 76.4997L60.9048 80.2364C59.6565 83.0506 56.4929 84.4043 53.7008 83.3242L49.978 81.887C49.5753 81.734 49.1189 81.8267 48.7968 82.1235L45.8884 84.9237C44.8011 85.9808 43.3916 86.5 41.9956 86.5L41.991 86.5ZM34.4201 77.0654C35.8385 77.0654 37.2256 77.6125 38.3039 78.6556L41.2124 81.4558C41.6464 81.8824 42.3355 81.8824 42.7696 81.4558L45.678 78.6556C47.2709 77.1256 49.5262 76.6481 51.5665 77.4455L55.2893 78.8827C55.8486 79.096 56.4795 78.8364 56.7345 78.2661L58.3856 74.5294C59.2894 72.4755 61.2045 71.1589 63.3792 71.0754L67.3436 70.9224C67.9387 70.8992 68.4219 70.3985 68.4443 69.7819L68.5919 65.6649C68.6725 63.4118 69.9567 61.4275 71.9255 60.4909L75.5319 58.7802C76.0689 58.5205 76.3329 57.8668 76.127 57.2827L74.74 53.4254C73.9838 51.3114 74.4312 48.9747 75.9078 47.3242L78.6104 44.3107C79.0131 43.8609 79.0131 43.147 78.6104 42.6972L75.9078 39.6837C74.4312 38.0332 73.9703 35.6965 74.74 33.5825L76.127 29.7252C76.3329 29.1457 76.0689 28.4919 75.5319 28.2277L71.9255 26.517C69.9433 25.5805 68.6726 23.5963 68.5919 21.343L68.4443 17.2354C68.4219 16.6188 67.9387 16.1181 67.3436 16.0949L63.3701 15.9419C61.1956 15.8584 59.2804 14.5279 58.3766 12.4879L56.7255 8.75117C56.4749 8.19483 55.844 7.9213 55.2802 8.13456L51.5574 9.57173C49.5171 10.3553 47.2619 9.89163 45.669 8.36173L42.7605 5.56145C42.3265 5.13491 41.6374 5.13491 41.2034 5.56145L38.2949 8.36173C36.702 9.89171 34.4468 10.3692 32.4065 9.57173L28.6837 8.13456C28.1333 7.9213 27.4934 8.19483 27.2384 8.75117L25.5873 12.4879C24.6835 14.5418 22.7684 15.8583 20.5938 15.9419L16.6294 16.0949C16.0343 16.1181 15.551 16.6188 15.5287 17.2354L15.381 21.3524C15.3004 23.6055 14.0163 25.5898 12.0474 26.5264L8.44102 28.2371C7.90408 28.4967 7.64008 29.1504 7.84591 29.7346L9.23297 33.5919C9.98916 35.7059 9.54171 38.0426 8.06516 39.6931L5.36252 42.7066C4.95982 43.1563 4.95982 43.8703 5.36252 44.32L8.06516 47.3336C9.54179 48.984 10.0026 51.3207 9.23297 53.4348L7.84591 57.2921C7.64008 57.8716 7.90408 58.5253 8.44102 58.7895L12.0474 60.5003C14.0297 61.4368 15.3003 63.421 15.381 65.6743L15.5287 69.7819C15.551 70.3985 16.0343 70.8992 16.6294 70.9224L20.6028 71.0754C22.7774 71.1588 24.6925 72.4894 25.5964 74.5294L27.2475 78.2661C27.498 78.8224 28.129 79.096 28.6927 78.8827L32.4155 77.4455C33.0688 77.1952 33.7445 77.0654 34.4201 77.0654Z" fill="#10B981" fill-opacity="0.5"/>
<path d="M41.991 86.5C40.5949 86.5 39.1855 85.9761 38.0982 84.9237L35.1897 82.1234C34.8676 81.8128 34.4201 81.7201 34.0085 81.8731L30.2857 83.3103C27.4892 84.3905 24.3302 83.0275 23.0817 80.2225L21.4306 76.4858C21.2472 76.0686 20.8713 75.8089 20.4328 75.7997L16.4685 75.6467C13.4884 75.5261 11.0632 73.0226 10.9603 69.9395L10.8127 65.8319C10.7992 65.3822 10.5397 64.9881 10.1504 64.7981L6.54403 63.0873C3.828 61.8078 2.52147 58.516 3.56397 55.623L4.95102 51.7657C5.09868 51.3392 5.00919 50.8756 4.72282 50.5418L2.02019 47.5283C-0.00672924 45.2611 -0.00672924 41.7145 2.02019 39.4567L4.72282 36.4431C5.02262 36.1093 5.1121 35.6457 4.96445 35.2192L3.57739 31.3619C2.53483 28.4643 3.85033 25.1912 6.55746 23.8976L10.1639 22.1869C10.5666 21.9968 10.8171 21.6074 10.8261 21.153L10.9738 17.0454C11.0901 13.9577 13.5063 11.4448 16.4819 11.3383L20.4463 11.1853C20.8803 11.1714 21.2606 10.9025 21.4441 10.4991L23.0952 6.76241C24.3435 3.94824 27.5071 2.59451 30.2992 3.67467L34.0219 5.11184C34.4336 5.26484 34.8811 5.17211 35.2032 4.87539L38.1116 2.07511C40.2997 -0.0250377 43.7226 -0.0250377 45.9018 2.07511L48.8103 4.87539C49.1324 5.18602 49.5799 5.27874 49.9915 5.12575L53.7143 3.68858C56.5108 2.60835 59.6698 3.96212 60.9183 6.77632L62.5694 10.513C62.7528 10.9303 63.1287 11.1899 63.5672 11.1992L67.5315 11.3522C70.5116 11.4727 72.9368 13.9762 73.0397 17.0593L73.1873 21.1669C73.2008 21.6167 73.4603 22.0107 73.8495 22.2008L77.456 23.9115C80.172 25.1911 81.4785 28.4829 80.436 31.3758L79.049 35.2331C78.9013 35.6597 78.9908 36.1233 79.2772 36.457L81.9798 39.4706C84.0067 41.7377 84.0067 45.2843 81.9798 47.5422L79.2772 50.5558C78.9774 50.8896 78.8879 51.3532 79.0356 51.7796L80.4226 55.6369C81.4652 58.5345 80.1497 61.8077 77.4425 63.1012L73.8361 64.812C73.4334 65.0021 73.1829 65.3915 73.1739 65.8458L73.0262 69.9534C72.9099 73.0412 70.4937 75.554 67.5181 75.6606L63.5537 75.8136C63.1197 75.8275 62.7394 76.0964 62.5559 76.4997L60.9048 80.2364C59.6565 83.0506 56.4929 84.4043 53.7008 83.3242L49.978 81.887C49.5753 81.734 49.1189 81.8267 48.7968 82.1235L45.8884 84.9237C44.8011 85.9808 43.3916 86.5 41.9956 86.5L41.991 86.5ZM34.4201 77.0654C35.8385 77.0654 37.2256 77.6125 38.3039 78.6556L41.2124 81.4558C41.6464 81.8824 42.3355 81.8824 42.7696 81.4558L45.678 78.6556C47.2709 77.1256 49.5262 76.6481 51.5665 77.4455L55.2893 78.8827C55.8486 79.096 56.4795 78.8364 56.7345 78.2661L58.3856 74.5294C59.2894 72.4755 61.2045 71.1589 63.3792 71.0754L67.3436 70.9224C67.9387 70.8992 68.4219 70.3985 68.4443 69.7819L68.5919 65.6649C68.6725 63.4118 69.9567 61.4275 71.9255 60.4909L75.5319 58.7802C76.0689 58.5205 76.3329 57.8668 76.127 57.2827L74.74 53.4254C73.9838 51.3114 74.4312 48.9747 75.9078 47.3242L78.6104 44.3107C79.0131 43.8609 79.0131 43.147 78.6104 42.6972L75.9078 39.6837C74.4312 38.0332 73.9703 35.6965 74.74 33.5825L76.127 29.7252C76.3329 29.1457 76.0689 28.4919 75.5319 28.2277L71.9255 26.517C69.9433 25.5805 68.6726 23.5963 68.5919 21.343L68.4443 17.2354C68.4219 16.6188 67.9387 16.1181 67.3436 16.0949L63.3701 15.9419C61.1956 15.8584 59.2804 14.5279 58.3766 12.4879L56.7255 8.75117C56.4749 8.19483 55.844 7.9213 55.2802 8.13456L51.5574 9.57173C49.5171 10.3553 47.2619 9.89163 45.669 8.36173L42.7605 5.56145C42.3265 5.13491 41.6374 5.13491 41.2034 5.56145L38.2949 8.36173C36.702 9.89171 34.4468 10.3692 32.4065 9.57173L28.6837 8.13456C28.1333 7.9213 27.4934 8.19483 27.2384 8.75117L25.5873 12.4879C24.6835 14.5418 22.7684 15.8583 20.5938 15.9419L16.6294 16.0949C16.0343 16.1181 15.551 16.6188 15.5287 17.2354L15.381 21.3524C15.3004 23.6055 14.0163 25.5898 12.0474 26.5264L8.44102 28.2371C7.90408 28.4967 7.64008 29.1504 7.84591 29.7346L9.23297 33.5919C9.98916 35.7059 9.54171 38.0426 8.06516 39.6931L5.36252 42.7066C4.95982 43.1563 4.95982 43.8703 5.36252 44.32L8.06516 47.3336C9.54179 48.984 10.0026 51.3207 9.23297 53.4348L7.84591 57.2921C7.64008 57.8716 7.90408 58.5253 8.44102 58.7895L12.0474 60.5003C14.0297 61.4368 15.3003 63.421 15.381 65.6743L15.5287 69.7819C15.551 70.3985 16.0343 70.8992 16.6294 70.9224L20.6028 71.0754C22.7774 71.1588 24.6925 72.4894 25.5964 74.5294L27.2475 78.2661C27.498 78.8224 28.129 79.096 28.6927 78.8827L32.4155 77.4455C33.0688 77.1952 33.7445 77.0654 34.4201 77.0654Z" stroke="#10B981" stroke-opacity="0.5" mask="url(#path-1-outside-1_1_19)"/>
<path d="M33.7218 58.2752C32.29 58.2752 30.8715 57.7189 29.7798 56.5876L23.2828 49.9069C22.3879 48.9797 22.3789 47.4868 23.2828 46.5504C24.1777 45.6231 25.6319 45.6139 26.5223 46.5504L33.0193 53.2311C33.422 53.6344 34.0619 53.6344 34.4511 53.2311L57.4855 29.3645C58.3804 28.4373 59.8346 28.4373 60.725 29.3645C61.6199 30.2917 61.6199 31.7985 60.725 32.7211L37.6906 56.5876C36.6033 57.7142 35.1715 58.2845 33.7397 58.2845L33.7218 58.2752Z" fill="#10B981" fill-opacity="0.5"/>
<path d="M57.3055 29.1906C58.2981 28.1622 59.9151 28.1616 60.9041 29.1906C61.8921 30.2142 61.8928 31.8739 60.9041 32.8937L60.9051 32.8947L37.8709 56.7609C36.7359 57.9369 35.2385 58.5342 33.7401 58.5343H33.6785L33.658 58.5236C32.1819 58.5072 30.7234 57.9255 29.5994 56.7609V56.7599L23.1033 50.0812V50.0802C22.1155 49.0567 22.1054 47.411 23.1033 46.3771C24.0946 45.3501 25.7115 45.3363 26.702 46.3761L33.1961 53.0548L33.2557 53.1085C33.5621 53.36 34.0001 53.3387 34.2713 53.0577L57.3055 29.1906Z" stroke="#10B981" stroke-opacity="0.5" stroke-width="0.5"/>
</svg>
