<svg width="66" height="75" viewBox="0 0 66 75" fill="none" xmlns="http://www.w3.org/2000/svg">
<path fill-rule="evenodd" clip-rule="evenodd" d="M25.6678 33.6589C27.6925 33.6589 29.3322 35.3349 29.3322 37.4V56.0982C29.3322 58.1633 27.6925 59.8393 25.6678 59.8393C23.6431 59.8393 22 58.1633 22 56.0982V37.4C22 35.3349 23.6431 33.6589 25.6678 33.6589Z" fill="#EF4444"/>
<path fill-rule="evenodd" clip-rule="evenodd" d="M40.3322 33.6589C42.3569 33.6589 44 35.3349 44 37.4V56.0982C44 58.1633 42.3569 59.8393 40.3322 59.8393C38.3075 59.8393 36.6678 58.1633 36.6678 56.0982V37.4C36.6678 35.3349 38.3075 33.6589 40.3322 33.6589Z" fill="#EF4444"/>
<path fill-rule="evenodd" clip-rule="evenodd" d="M0 18.7018C0 16.6367 1.64314 14.9607 3.66784 14.9607H62.3322C64.3569 14.9607 66 16.6367 66 18.7018C66 20.7669 64.3569 22.4394 62.3322 22.4394H3.66784C1.64314 22.4394 0 20.7669 0 18.7018Z" fill="#EF4444"/>
<path fill-rule="evenodd" clip-rule="evenodd" d="M11 26.1804C13.0247 26.1804 14.6678 27.8563 14.6678 29.9214V59.8393C14.6678 63.9696 17.9507 67.3179 22 67.3179H44C48.0494 67.3179 51.3322 63.9695 51.3322 59.8393V29.9214C51.3322 27.8563 52.9753 26.1804 55 26.1804C57.0247 26.1804 58.6678 27.8563 58.6678 29.9214V59.8393C58.6678 68.0997 52.0988 74.8 44 74.8H22C13.9013 74.8 7.33215 68.0998 7.33215 59.8393V29.9214C7.33215 27.8563 8.97529 26.1804 11 26.1804Z" fill="#EF4444"/>
<path fill-rule="evenodd" clip-rule="evenodd" d="M18.3322 11.2196C18.3322 5.02434 23.2582 0 29.3322 0H36.6678C42.7418 0 47.6678 5.02434 47.6678 11.2196V18.7017C47.6678 20.7668 46.0246 22.4393 43.9999 22.4393H21.9999C19.9752 22.4393 18.3321 20.7668 18.3321 18.7017L18.3322 11.2196ZM29.3322 7.48206C27.3075 7.48206 25.6678 9.15451 25.6678 11.2196V14.9607H40.3321V11.2196C40.3321 9.15451 38.6924 7.48206 36.6677 7.48206H29.3322Z" fill="#EF4444"/>
</svg>
