<svg width="59" height="62" viewBox="0 0 59 62" fill="none" xmlns="http://www.w3.org/2000/svg">
<path d="M47.5101 5.01086e-05C46.0017 -0.00442003 44.5074 0.290235 43.1136 0.866969C41.7199 1.4437 40.4543 2.29107 39.3901 3.36005L18.5701 24.19C16.7985 25.9502 15.3939 28.0446 14.4378 30.3517C13.4816 32.6588 12.9929 35.1327 13.0001 37.6301V46H21.3701C23.8658 46.0059 26.3378 45.5165 28.6431 44.5604C30.9483 43.6043 33.0411 42.2005 34.8001 40.43L55.6401 19.6101C57.2457 18.0026 58.3387 15.9552 58.781 13.7266C59.2232 11.4981 58.9949 9.18844 58.1247 7.08966C57.2546 4.99087 55.7818 3.19717 53.8925 1.93526C52.0031 0.67336 49.7821 -8.61042e-05 47.5101 5.01086e-05ZM51.3901 15.3601L30.5701 36.19C29.3649 37.4021 27.9311 38.363 26.3519 39.017C24.7727 39.671 23.0794 40.0051 21.3701 40H19.0001V37.6301C18.9963 35.9225 19.3311 34.231 19.9851 32.6536C20.639 31.0762 21.5992 29.6441 22.8101 28.44L43.6401 7.61005C44.6799 6.63514 46.0582 6.10289 47.4834 6.12586C48.9087 6.14883 50.2691 6.72522 51.277 7.73313C52.2849 8.74105 52.8613 10.1015 52.8843 11.5267C52.9072 12.9519 52.375 14.3302 51.4001 15.37L51.3901 15.3601Z" fill="#E2E8F0"/>
<path d="M11 62H47C49.9174 62 52.7153 60.8411 54.7782 58.7782C56.8411 56.7153 58 53.9174 58 51V35H52V51C52 52.3261 51.4732 53.5979 50.5355 54.5356C49.5979 55.4733 48.3261 56 47 56H11C9.67392 56 8.40215 55.4733 7.46447 54.5356C6.52678 53.5979 6 52.3261 6 51V15C6 13.674 6.52678 12.4022 7.46447 11.4645C8.40215 10.5268 9.67392 10 11 10H27V4.00005H11C8.08262 4.00005 5.28472 5.15897 3.22182 7.22187C1.15892 9.28477 0 12.0827 0 15V51C0 53.9174 1.15892 56.7153 3.22182 58.7782C5.28472 60.8411 8.08262 62 11 62Z" fill="#E2E8F0"/>
</svg>
