<svg width="76" height="64" viewBox="0 0 76 64" fill="none" xmlns="http://www.w3.org/2000/svg">
<path d="M28.8401 23.539C28.8401 28.9648 20.6995 28.9648 20.6995 23.539C20.6995 18.1132 28.8401 18.1132 28.8401 23.539Z" fill="#94A3B8"/>
<path d="M66.2188 0C70.9102 0 74.7188 3.8203 74.7188 8.5V46.8672C75.3711 47.7305 75.5391 48.8789 75.1094 49.8789L73.918 52.6797L74.0781 55.7188C74.1366 56.91 73.496 58.0195 72.4375 58.5586L69.7188 59.9375L67.8906 62.3672C67.1837 63.3163 65.9608 63.7577 64.8125 63.4883L61.8438 62.7969L58.875 63.4883C58.6446 63.5351 58.414 63.5664 58.1953 63.5664C57.2658 63.5664 56.375 63.1365 55.7969 62.3672L53.9688 59.9375L51.2578 58.5586C50.9493 58.3985 50.6796 58.1874 50.4492 57.9492H8.5C3.80867 57.9492 0.000115903 54.1288 0 49.4492V8.5C0 3.8086 3.8203 0 8.5 0H66.2188ZM66.1533 47.5332C65.7185 47.5332 65.3228 47.7446 64.9697 48.0977L64.9629 48.1045L62.7607 50.457L60.542 48.1045L60.5352 48.0977C60.1821 47.7446 59.7863 47.5332 59.3516 47.5332C59.0319 47.5332 58.7462 47.6332 58.5156 47.8428C58.2112 48.1015 58.043 48.433 58.043 48.8232C58.043 49.1857 58.2016 49.5171 58.4688 49.8125L58.4736 49.8174L60.9189 52.416L58.2344 55.2725C57.9886 55.5213 57.8604 55.827 57.8604 56.1748C57.8604 56.565 58.0277 56.8966 58.332 57.1553L58.3379 57.1592C58.5851 57.36 58.871 57.4648 59.1865 57.4648C59.612 57.4648 59.9904 57.2801 60.3154 56.9551L60.3213 56.9492L62.7607 54.3584L65.1826 56.9482L65.1895 56.9551C65.5145 57.2801 65.8929 57.4648 66.3184 57.4648C66.634 57.4648 66.9207 57.3601 67.168 57.1592L67.1729 57.1553C67.4772 56.8965 67.6445 56.565 67.6445 56.1748C67.6445 55.8267 67.5156 55.5214 67.2695 55.2725H67.2705L64.585 52.416L67.0322 49.8174L67.0361 49.8125C67.3033 49.5171 67.4619 49.1858 67.4619 48.8232C67.4619 48.433 67.2936 48.1015 66.9893 47.8428H66.9883C66.7578 47.6336 66.4727 47.5332 66.1533 47.5332ZM24.7773 34.6797C20.3785 34.6797 16.0772 35.8711 12.3467 38.1406C11.4054 38.7188 11.1045 39.9493 11.6748 40.8906C12.2529 41.832 13.4834 42.1326 14.4248 41.5625C17.5268 39.6836 21.1167 38.6836 24.7773 38.6836C28.4378 38.6837 32.0196 39.672 35.1289 41.5625C35.457 41.7617 35.8165 41.8515 36.168 41.8516C36.8397 41.8516 37.5 41.5116 37.8789 40.8906C38.457 39.9415 38.1483 38.711 37.207 38.1406C33.4764 35.879 29.1756 34.6798 24.7773 34.6797ZM41.7109 32.8984C40.6094 32.8985 39.7109 33.7969 39.7109 34.8984C39.711 35.9999 40.6094 36.8984 41.7109 36.8984H55.3398C56.4414 36.8984 57.3398 35.9999 57.3398 34.8984C57.3398 33.7969 56.4414 32.8984 55.3398 32.8984H41.7109ZM24.7695 15.4688C20.3205 15.469 16.6992 19.09 16.6992 23.5391C16.6994 27.988 20.3206 31.6091 24.7695 31.6094C29.2186 31.6094 32.8397 27.9881 32.8398 23.5391C32.8398 19.0899 29.2187 15.4688 24.7695 15.4688ZM41.7109 25.6592C40.6095 25.6592 39.7111 26.5577 39.7109 27.6592C39.7109 28.7607 40.6094 29.6591 41.7109 29.6592H60.7422C61.8437 29.6591 62.7422 28.7607 62.7422 27.6592C62.742 26.5578 61.8436 25.6593 60.7422 25.6592H41.7109ZM41.7109 18.4287C40.6095 18.4287 39.7111 19.3273 39.7109 20.4287C39.7109 21.5303 40.6094 22.4287 41.7109 22.4287H60.7422C61.8437 22.4286 62.7422 21.5302 62.7422 20.4287C62.742 19.3273 61.8436 18.4288 60.7422 18.4287H41.7109Z" fill="#94A3B8"/>
</svg>
