<svg width="87" height="82" viewBox="0 0 87 82" fill="none" xmlns="http://www.w3.org/2000/svg">
<path d="M57.5771 75.8406C58.0849 77.1218 57.4599 78.575 56.1787 79.0867C55.331 79.4227 54.4639 79.7352 53.6006 80.0125C53.3467 80.0946 53.085 80.1336 52.8311 80.1336C51.7764 80.1336 50.7959 79.4618 50.4522 78.4031C50.0264 77.0906 50.7491 75.6804 52.0616 75.2547C52.8194 75.0086 53.585 74.7352 54.3311 74.4383C55.6163 73.9305 57.0655 74.5555 57.5772 75.8367L57.5771 75.8406ZM63.3349 69.2312C62.6982 69.7352 62.0458 70.2156 61.3974 70.6648C60.2607 71.4461 59.9755 73.0046 60.7568 74.1414C61.2412 74.8446 62.0224 75.2234 62.8193 75.2234C63.3076 75.2234 63.7997 75.0828 64.2334 74.782C64.9756 74.2703 65.7178 73.7234 66.4365 73.1531C67.5185 72.2977 67.7021 70.7234 66.8466 69.6414C65.9912 68.5594 64.4169 68.3758 63.3349 69.2312ZM73.3819 61.9382C72.2764 61.1179 70.71 61.3484 69.8858 62.4578C69.6085 62.8328 69.3194 63.2039 69.0303 63.5672C68.1671 64.6453 68.3389 66.2156 69.4131 67.0828C69.8741 67.4539 70.4287 67.6336 70.9756 67.6336C71.7061 67.6336 72.4326 67.3132 72.9248 66.7C73.2569 66.2859 73.5811 65.864 73.9014 65.4344C74.7217 64.325 74.4913 62.7585 73.3819 61.9382ZM85.1089 32.7932C83.9331 32.0784 82.3941 32.4456 81.6714 33.6253L81.3862 34.094C79.6401 23.731 74.0307 14.481 65.4132 8.08603C56.6202 1.55873 45.8152 -1.15227 34.9792 0.449328C24.1472 2.05093 14.5882 7.77743 8.06125 16.5703C-5.41175 34.7223 -1.60286 60.4493 16.5456 73.9223C23.6159 79.1684 32.2176 82.0004 40.9796 82.0004C41.675 82.0004 42.3702 81.9848 43.0655 81.9496C43.5968 81.9223 44.128 81.8871 44.6553 81.8364C46.0303 81.7114 47.0459 80.4966 46.9209 79.1216C46.7959 77.7466 45.5811 76.7388 44.2061 76.856C43.7413 76.8989 43.2765 76.9302 42.8077 76.9536C34.503 77.3911 26.2217 74.8794 19.5267 69.9067C11.804 64.1762 6.78075 55.7817 5.37075 46.2697C3.96455 36.758 6.34341 27.2697 12.0777 19.5467C17.8082 11.824 26.2027 6.80072 35.7147 5.39072C45.2303 3.98052 54.7147 6.36338 62.4377 12.0977C70.1252 17.8008 75.0857 26.0977 76.5317 35.3747L75.5122 34.3552C74.5357 33.3787 72.9536 33.3787 71.977 34.3552C71.0005 35.3318 71.0005 36.9138 71.977 37.8904L77.7739 43.6873C78.2466 44.16 78.8833 44.4178 79.5395 44.4178C79.6372 44.4178 79.7349 44.4139 79.8364 44.4022C80.5981 44.3123 81.2739 43.8748 81.6723 43.2225L85.9418 36.2225C86.6606 35.0428 86.2856 33.5077 85.1098 32.785L85.1089 32.7932ZM60.6639 60.0003C60.6639 61.3792 59.5467 62.5003 58.1639 62.5003H23.8009C22.422 62.5003 21.3009 61.3831 21.3009 60.0003C21.3009 58.6214 22.4181 57.5003 23.8009 57.5003H25.7814V51.4963C25.7814 48.258 27.4572 45.2111 30.2658 43.3518L33.8088 41.0042L30.2658 38.6564C27.4572 36.797 25.7814 33.7502 25.7814 30.5119V24.508H23.8009C22.422 24.508 21.3009 23.3908 21.3009 22.008C21.3009 20.6291 22.4181 19.508 23.8009 19.508H58.1639C59.5428 19.508 60.6639 20.6252 60.6639 22.008C60.6639 23.3869 59.5467 24.508 58.1639 24.508H56.5936V30.5119C56.5936 33.7502 54.9178 36.7971 52.1092 38.6564L48.5662 41.0042L52.1092 43.3518C54.9178 45.2112 56.5936 48.258 56.5936 51.4963V57.5003H58.1639C59.5428 57.5003 60.6639 58.6175 60.6639 60.0003ZM30.7769 57.5003H51.5929V51.4963C51.5929 49.9377 50.7531 48.4494 49.3468 47.5197L45.089 44.6955C43.8312 43.8596 43.0773 42.4808 43.0773 41.0042C43.0773 39.5276 43.8312 38.1447 45.089 37.3127L49.3468 34.4885C50.753 33.555 51.5929 32.0666 51.5929 30.508V24.5042H30.7769V30.508C30.7769 32.0666 31.6167 33.5549 33.023 34.4846L37.2847 37.3088C38.5425 38.1448 39.2964 39.5236 39.2964 41.0002C39.2964 42.4768 38.5464 43.8558 37.2847 44.6917L33.0269 47.5159C31.6207 48.4494 30.7808 49.9338 30.7808 51.4924V57.4963L30.7769 57.5003Z" fill="#A855F7" fill-opacity="0.5"/>
</svg>
