<svg width="83" height="86" viewBox="0 0 83 86" fill="none" xmlns="http://www.w3.org/2000/svg">
<path d="M82.1699 41.8735L70.8366 32.6734C70.0259 32.0152 68.8084 31.8198 67.7487 32.1747C66.689 32.5296 66 33.3697 66 34.2996V36.5996H51.8333C50.2673 36.5996 49 37.6283 49 38.8997V48.0999C49 49.3712 50.2673 50.3999 51.8333 50.3999H66V52.7C66 53.6299 66.689 54.4699 67.7487 54.8248C68.1001 54.9438 68.4681 55 68.8333 55C69.5693 55 70.2943 54.7664 70.8366 54.3262L82.1699 45.126C83.2767 44.2275 83.2767 42.772 82.1699 41.8735Z" fill="#F59E0B" fill-opacity="0.5"/>
<path d="M32.8333 36C31.2673 36 30 37.0436 30 38.3333V47.6667C30 48.9564 31.2673 50 32.8333 50H44.1667C45.7327 50 47 48.9564 47 47.6667V38.3333C47 37.0436 45.7327 36 44.1667 36H32.8333Z" fill="#F59E0B" fill-opacity="0.5"/>
<path d="M16 36C14.3418 36 13 37.0436 13 38.3333V47.6667C13 48.9564 14.3418 50 16 50H25C26.6582 50 28 48.9564 28 47.6667V38.3333C28 37.0436 26.6582 36 25 36H16Z" fill="#F59E0B" fill-opacity="0.5"/>
<path d="M81.0419 55.5467C79.4822 54.8928 77.6766 55.6277 77.0227 57.1964C71.2727 70.9638 57.9192 79.8571 43 79.8571C22.6758 79.8571 6.14286 63.3242 6.14286 43C6.14286 22.6758 22.6758 6.14286 43 6.14286C57.9132 6.14286 71.2667 15.0302 77.0227 28.7826C77.6796 30.3514 79.4852 31.0862 81.0419 30.4323C82.6076 29.7755 83.3455 27.9758 82.6916 26.4131C75.9759 10.3661 60.3968 0 43 0C19.2894 0 0 19.2894 0 43C0 66.7106 19.2894 86 43 86C60.4028 86 75.9819 75.6249 82.6916 59.5659C83.3455 58.0002 82.6076 56.2005 81.0419 55.5467Z" fill="#F59E0B" fill-opacity="0.5"/>
</svg>
